<!--?xml version="1.0" standalone="no"?-->
              <svg id="sw-js-blob-svg" viewBox="0 0 100 100" xmlns="http://www.w3.org/2000/svg" version="1.1">
                    <defs> 
                        <linearGradient id="sw-gradient" x1="0" x2="1" y1="1" y2="0">
                            <stop id="stop1" stop-color="rgba(248, 117, 55, 1)" offset="0%"></stop>
                            <stop id="stop2" stop-color="rgba(251, 168, 31, 1)" offset="100%"></stop>
                        </linearGradient>
                    </defs>
                <path fill="url(#sw-gradient)" d="M21,-25.1C24.9,-21.7,24.2,-12.9,24.2,-5.4C24.2,2.1,24.8,8.4,23.6,16.5C22.4,24.7,19.3,34.6,12.3,39.8C5.3,45,-5.7,45.3,-12.3,40.2C-19,35,-21.3,24.3,-26,15.4C-30.6,6.5,-37.5,-0.7,-35.6,-5.4C-33.7,-10.2,-23.1,-12.5,-15.7,-15.3C-8.3,-18,-4.1,-21.3,2.2,-23.9C8.5,-26.5,17.1,-28.5,21,-25.1Z" width="100%" height="100%" transform="translate(50 50)" stroke-width="0" style="transition: all 0.3s ease 0s;"></path>
              </svg>